# xmcd
#
# Track frame offsets:
#	300
#	17868
#	43961
#	61165
#	80682
#	87431
#	106697
#	118199
#	130070
#	145807
#
# Disc length: 2200 seconds
#
# Revision: 2
# Processed by: cddbd v1.5.1PL0 Copyright (c) Steve Scherf et al.
# Submitted via: audiograbber 1.83.01
#
DISCID=8808940a
DTITLE=Corina Piatti - Un fresco amanacer
DYEAR=1900
DGENRE=Blues
TTITLE0=Me and Bobby Mc. Gee
TTITLE1=Las puertas a Mi
TTITLE2=Trata de Divertirte
TTITLE3=Desaparece
TTITLE4=Libertad
TTITLE5=Lo Simple
TTITLE6=Agua de Beber
TTITLE7=ango Till They're Sore
TTITLE8=Eu Sei Que Eu Vou Te Amar
TTITLE9=Like a Prayer
EXTD=
EXTT0=
EXTT1=
EXTT2=
EXTT3=
EXTT4=
EXTT5=
EXTT6=
EXTT7=
EXTT8=
EXTT9=
PLAYORDER=
